%TF.GenerationSoftware,Altium Limited,Altium Designer,20.1.12 (249)*%
G04 Layer_Physical_Order=1*
G04 Layer_Color=255*
%FSLAX26Y26*%
%MOIN*%
%TF.SameCoordinates,01E7709E-0BC1-400C-968F-F7AE8F8D3573*%
%TF.FilePolarity,Positive*%
%TF.FileFunction,Copper,L1,Top,Signal*%
%TF.Part,Single*%
G01*
G75*
%TA.AperFunction,Conductor*%
%ADD10C,0.010000*%
%ADD11C,0.020000*%
%TA.AperFunction,WasherPad*%
%ADD12C,0.060000*%
%TA.AperFunction,ComponentPad*%
%ADD13C,0.059370*%
%ADD14R,0.059370X0.059370*%
%ADD15R,0.059370X0.059370*%
%ADD16C,0.060236*%
%ADD17R,0.060236X0.060236*%
%ADD18C,0.053858*%
%ADD19R,0.053858X0.053858*%
%ADD20C,0.055118*%
%ADD21R,0.053858X0.053858*%
%ADD22C,0.047244*%
%ADD23R,0.060236X0.060236*%
%ADD24C,0.055039*%
%ADD25R,0.055039X0.055039*%
%ADD26R,0.059055X0.059055*%
%ADD27C,0.059055*%
%ADD28O,0.196850X0.098425*%
%ADD29O,0.196850X0.098425*%
%ADD30O,0.098425X0.196850*%
%ADD31C,0.157480*%
D10*
X3533976Y330000D02*
X3658347Y205630D01*
X1785000Y330000D02*
X3533976D01*
X1785000Y317209D02*
Y330000D01*
X2088740Y470000D02*
X2245000D01*
X2540000Y765000D01*
X2010000Y470000D02*
X2080000Y540000D01*
X2225000D02*
X2440000Y755000D01*
Y765000D01*
X2080000Y540000D02*
X2225000D01*
X2496299Y495276D02*
X2500276D01*
X2595000Y590000D01*
X2686406D01*
X2701406Y575000D01*
X2715000D01*
X3355000Y390000D02*
X3552717D01*
X3658347Y284370D01*
X3415000Y450000D02*
Y560787D01*
X3355000Y390000D02*
X3415000Y450000D01*
X2340000Y1265000D02*
Y1530000D01*
X2298425Y1571575D02*
Y1645000D01*
Y1571575D02*
X2340000Y1530000D01*
X2200000Y1565000D02*
Y1645000D01*
X2240000Y1265000D02*
Y1525000D01*
X2200000Y1565000D02*
X2240000Y1525000D01*
X1752872Y1630553D02*
X1779447D01*
X1980000Y1430000D01*
X1661653Y1150630D02*
X1743425Y1232402D01*
Y1640000D01*
X1752872Y1630553D01*
X3415000Y1540000D02*
Y1595000D01*
X3565000Y1390000D02*
Y1390000D01*
X3415000Y1540000D02*
X3565000Y1390000D01*
X3325000Y1685000D02*
X3415000Y1595000D01*
X2474370Y473346D02*
X2496299Y495276D01*
X992008Y1477992D02*
Y1639134D01*
Y1477992D02*
X1210000Y1260000D01*
X893583Y1476417D02*
Y1639134D01*
Y1476417D02*
X1110000Y1260000D01*
X1010000D02*
Y1265000D01*
X810000Y1465000D02*
Y1610932D01*
Y1465000D02*
X1010000Y1265000D01*
X715000Y1455000D02*
Y1608591D01*
Y1455000D02*
X910000Y1260000D01*
X1475000Y1435000D02*
Y1543425D01*
X1378425Y1640000D02*
Y1640000D01*
Y1640000D02*
X1475000Y1543425D01*
Y1435000D02*
X1483633Y1426367D01*
Y1407391D02*
X1661653Y1229370D01*
X1483633Y1407391D02*
Y1426367D01*
X3245000Y1685000D02*
X3325000D01*
X2775000Y1390000D02*
X3365000D01*
X2725000Y1440000D02*
X2775000Y1390000D01*
X3170000Y1435000D02*
X3420000D01*
X3465000Y1390000D01*
X3058425Y1653347D02*
X3170000Y1541772D01*
Y1435000D02*
Y1541772D01*
X2689213Y1475787D02*
Y1650000D01*
Y1475787D02*
X2725000Y1440000D01*
X3215000Y975000D02*
X3220000D01*
X3356850Y1111850D01*
X3415000D01*
X3350276Y1210276D02*
X3415000D01*
X3215000Y1075000D02*
X3350276Y1210276D01*
X3353425Y1013425D02*
X3415000D01*
X3215000Y875000D02*
X3353425Y1013425D01*
X3355000Y915000D02*
X3415000D01*
X3215000Y775000D02*
X3355000Y915000D01*
X1385000Y505000D02*
Y721406D01*
X1410000Y746406D01*
Y760000D01*
X1308130Y758130D02*
X1310000Y760000D01*
X1308130Y506870D02*
Y758130D01*
X1306260Y505000D02*
X1308130Y506870D01*
X1620000Y140000D02*
Y152209D01*
X1785000Y317209D01*
X2395630Y473346D02*
X2597283Y675000D01*
X2715000D01*
X2105000Y1550000D02*
Y1641575D01*
X2135000Y1270000D02*
X2140000Y1265000D01*
X2105000Y1550000D02*
X2135000Y1520000D01*
Y1270000D02*
Y1520000D01*
X2101575Y1645000D02*
X2105000Y1641575D01*
X2008172Y1546828D02*
Y1639978D01*
X2040000Y1265000D02*
Y1515000D01*
X2008172Y1546828D02*
X2040000Y1515000D01*
X2003150Y1645000D02*
X2008172Y1639978D01*
X696732Y1626859D02*
Y1639134D01*
Y1626859D02*
X715000Y1608591D01*
X795158Y1625774D02*
Y1639134D01*
Y1625774D02*
X810000Y1610932D01*
X2719213Y773346D02*
Y873346D01*
X2240000Y765000D02*
X2340000D01*
X1110000Y760000D02*
X1210000D01*
X497539Y321673D02*
X499213Y323346D01*
X236673Y321673D02*
X497539D01*
X235000Y320000D02*
X236673Y321673D01*
X497539Y421673D02*
X499213Y423346D01*
X236673Y421673D02*
X497539D01*
X235000Y420000D02*
X236673Y421673D01*
X497539Y521673D02*
X499213Y523346D01*
X236673Y521673D02*
X497539D01*
X235000Y520000D02*
X236673Y521673D01*
X497539Y621673D02*
X499213Y623346D01*
X236673Y621673D02*
X497539D01*
X235000Y620000D02*
X236673Y621673D01*
X238346Y723346D02*
X499213D01*
X235000Y720000D02*
X238346Y723346D01*
D11*
X2830000Y885000D02*
Y1248520D01*
X2753402Y1325118D02*
X2830000Y1248520D01*
X1840000Y1160000D02*
X2511480D01*
X2676598Y1325118D01*
X2753402D01*
X1635000Y950000D02*
X1840000Y1155000D01*
X2830000Y415000D02*
Y885000D01*
X3215000Y1270000D02*
Y1275000D01*
X2830000Y885000D02*
X3215000Y1270000D01*
X796193Y710000D02*
X855789Y650404D01*
X855789D01*
X979787Y550213D02*
X985000Y545000D01*
X955981Y550213D02*
X979787D01*
X855789Y650404D02*
X955981Y550213D01*
X748520Y710000D02*
X796193D01*
X748402Y709882D02*
X748520Y710000D01*
X626716Y709882D02*
X748402D01*
X615000Y1165000D02*
X710000Y1260000D01*
X615000Y721598D02*
X626716Y709882D01*
X615000Y721598D02*
Y1165000D01*
X1840000Y1155000D02*
Y1265000D01*
X710000Y1260000D02*
X1020000Y950000D01*
X1635000D01*
X245000Y1200000D02*
X335000Y1290000D01*
Y1460158D01*
X509842D01*
X710000Y1260000D01*
D12*
X3700000Y1950000D02*
D03*
X135000Y145000D02*
D03*
D13*
X3415000Y1210276D02*
D03*
Y1111850D02*
D03*
Y915000D02*
D03*
Y1013425D02*
D03*
X3565000Y1390000D02*
D03*
X3465000D02*
D03*
X3415000Y1595000D02*
D03*
X696732Y1639134D02*
D03*
X795158D02*
D03*
X992008D02*
D03*
X893583D02*
D03*
X3415000Y560787D02*
D03*
X3058425Y1653347D02*
D03*
X2689213Y1650000D02*
D03*
X2200000Y1645000D02*
D03*
X2298425D02*
D03*
X2101575D02*
D03*
X2003150D02*
D03*
X1743425Y1640000D02*
D03*
X1378425D02*
D03*
X245000Y1200000D02*
D03*
Y1100000D02*
D03*
D14*
X3365000Y1390000D02*
D03*
X2960000Y1653347D02*
D03*
X2590787Y1650000D02*
D03*
X1645000Y1640000D02*
D03*
X1280000D02*
D03*
D15*
X3415000Y1693425D02*
D03*
Y659213D02*
D03*
X245000Y1000000D02*
D03*
D16*
X710000Y1260000D02*
D03*
X810000D02*
D03*
X910000D02*
D03*
X1010000D02*
D03*
X1110000D02*
D03*
X1210000D02*
D03*
X1310000D02*
D03*
X1410000D02*
D03*
Y760000D02*
D03*
X1310000D02*
D03*
X1210000D02*
D03*
X1110000D02*
D03*
X1010000D02*
D03*
X910000D02*
D03*
X810000D02*
D03*
X3215000Y1275000D02*
D03*
Y1175000D02*
D03*
Y1075000D02*
D03*
Y975000D02*
D03*
Y875000D02*
D03*
Y775000D02*
D03*
Y675000D02*
D03*
Y575000D02*
D03*
X2715000D02*
D03*
Y675000D02*
D03*
Y775000D02*
D03*
Y875000D02*
D03*
Y975000D02*
D03*
Y1075000D02*
D03*
Y1175000D02*
D03*
X1840000Y1265000D02*
D03*
X1940000D02*
D03*
X2040000D02*
D03*
X2140000D02*
D03*
X2240000D02*
D03*
X2340000D02*
D03*
X2440000D02*
D03*
X2540000D02*
D03*
Y765000D02*
D03*
X2440000D02*
D03*
X2340000D02*
D03*
X2240000D02*
D03*
X2140000D02*
D03*
X2040000D02*
D03*
X1940000D02*
D03*
D17*
X710000Y760000D02*
D03*
X1840000Y765000D02*
D03*
D18*
X2010000Y470000D02*
D03*
X2395630Y473346D02*
D03*
X1661653Y1150630D02*
D03*
X1306260Y505000D02*
D03*
X3658347Y284370D02*
D03*
X458346Y1149370D02*
D03*
D19*
X2088740Y470000D02*
D03*
X2474370Y473346D02*
D03*
X1385000Y505000D02*
D03*
D20*
X3245000Y1685000D02*
D03*
Y1985000D02*
D03*
X3355000Y90000D02*
D03*
Y390000D02*
D03*
X2870000Y1435000D02*
D03*
X3170000D02*
D03*
X2425000Y1440000D02*
D03*
X2725000D02*
D03*
X1680000Y1430000D02*
D03*
X1980000D02*
D03*
X1175000Y1435000D02*
D03*
X1475000D02*
D03*
X1620000Y440000D02*
D03*
Y140000D02*
D03*
D21*
X1661653Y1229370D02*
D03*
X3658347Y205630D02*
D03*
X458346Y1070630D02*
D03*
D22*
X720000Y545000D02*
D03*
Y245000D02*
D03*
X985000D02*
D03*
Y545000D02*
D03*
X1635000Y650000D02*
D03*
Y950000D02*
D03*
X3130000Y415000D02*
D03*
X2830000D02*
D03*
D23*
X2715000Y1275000D02*
D03*
D24*
X499213Y823346D02*
D03*
Y723346D02*
D03*
Y623346D02*
D03*
Y523346D02*
D03*
Y423346D02*
D03*
Y323346D02*
D03*
Y223346D02*
D03*
D25*
Y123347D02*
D03*
D26*
X235000Y720000D02*
D03*
X1785000Y230000D02*
D03*
D27*
X235000Y620000D02*
D03*
Y520000D02*
D03*
Y420000D02*
D03*
Y320000D02*
D03*
X1785000Y330000D02*
D03*
D28*
X335000Y1720000D02*
D03*
D29*
Y1460158D02*
D03*
D30*
X138150Y1599921D02*
D03*
D31*
X335000Y1869606D02*
D03*
%TF.MD5,e62486fc01b2b8b6f2691d5b2469e667*%
M02*
