%TF.GenerationSoftware,Altium Limited,Altium Designer,20.1.12 (249)*%
G04 Layer_Physical_Order=4*
G04 Layer_Color=16711680*
%FSLAX26Y26*%
%MOIN*%
%TF.SameCoordinates,01E7709E-0BC1-400C-968F-F7AE8F8D3573*%
%TF.FilePolarity,Positive*%
%TF.FileFunction,Copper,L4,Bot,Signal*%
%TF.Part,Single*%
G01*
G75*
%TA.AperFunction,WasherPad*%
%ADD12C,0.060000*%
%TA.AperFunction,ComponentPad*%
%ADD13C,0.059370*%
%ADD14R,0.059370X0.059370*%
%ADD15R,0.059370X0.059370*%
%ADD16C,0.060236*%
%ADD17R,0.060236X0.060236*%
%ADD18C,0.053858*%
%ADD19R,0.053858X0.053858*%
%ADD20C,0.055118*%
%ADD21R,0.053858X0.053858*%
%ADD22C,0.047244*%
%ADD23R,0.060236X0.060236*%
%ADD24C,0.055039*%
%ADD25R,0.055039X0.055039*%
%ADD26R,0.059055X0.059055*%
%ADD27C,0.059055*%
%ADD28O,0.196850X0.098425*%
%ADD29O,0.196850X0.098425*%
%ADD30O,0.098425X0.196850*%
%ADD31C,0.157480*%
D12*
X3700000Y1950000D02*
D03*
X135000Y145000D02*
D03*
D13*
X3415000Y1210276D02*
D03*
Y1111850D02*
D03*
Y915000D02*
D03*
Y1013425D02*
D03*
X3565000Y1390000D02*
D03*
X3465000D02*
D03*
X3415000Y1595000D02*
D03*
X696732Y1639134D02*
D03*
X795158D02*
D03*
X992008D02*
D03*
X893583D02*
D03*
X3415000Y560787D02*
D03*
X3058425Y1653347D02*
D03*
X2689213Y1650000D02*
D03*
X2200000Y1645000D02*
D03*
X2298425D02*
D03*
X2101575D02*
D03*
X2003150D02*
D03*
X1743425Y1640000D02*
D03*
X1378425D02*
D03*
X245000Y1200000D02*
D03*
Y1100000D02*
D03*
D14*
X3365000Y1390000D02*
D03*
X2960000Y1653347D02*
D03*
X2590787Y1650000D02*
D03*
X1645000Y1640000D02*
D03*
X1280000D02*
D03*
D15*
X3415000Y1693425D02*
D03*
Y659213D02*
D03*
X245000Y1000000D02*
D03*
D16*
X710000Y1260000D02*
D03*
X810000D02*
D03*
X910000D02*
D03*
X1010000D02*
D03*
X1110000D02*
D03*
X1210000D02*
D03*
X1310000D02*
D03*
X1410000D02*
D03*
Y760000D02*
D03*
X1310000D02*
D03*
X1210000D02*
D03*
X1110000D02*
D03*
X1010000D02*
D03*
X910000D02*
D03*
X810000D02*
D03*
X3215000Y1275000D02*
D03*
Y1175000D02*
D03*
Y1075000D02*
D03*
Y975000D02*
D03*
Y875000D02*
D03*
Y775000D02*
D03*
Y675000D02*
D03*
Y575000D02*
D03*
X2715000D02*
D03*
Y675000D02*
D03*
Y775000D02*
D03*
Y875000D02*
D03*
Y975000D02*
D03*
Y1075000D02*
D03*
Y1175000D02*
D03*
X1840000Y1265000D02*
D03*
X1940000D02*
D03*
X2040000D02*
D03*
X2140000D02*
D03*
X2240000D02*
D03*
X2340000D02*
D03*
X2440000D02*
D03*
X2540000D02*
D03*
Y765000D02*
D03*
X2440000D02*
D03*
X2340000D02*
D03*
X2240000D02*
D03*
X2140000D02*
D03*
X2040000D02*
D03*
X1940000D02*
D03*
D17*
X710000Y760000D02*
D03*
X1840000Y765000D02*
D03*
D18*
X2010000Y470000D02*
D03*
X2395630Y473346D02*
D03*
X1661653Y1150630D02*
D03*
X1306260Y505000D02*
D03*
X3658347Y284370D02*
D03*
X458346Y1149370D02*
D03*
D19*
X2088740Y470000D02*
D03*
X2474370Y473346D02*
D03*
X1385000Y505000D02*
D03*
D20*
X3245000Y1685000D02*
D03*
Y1985000D02*
D03*
X3355000Y90000D02*
D03*
Y390000D02*
D03*
X2870000Y1435000D02*
D03*
X3170000D02*
D03*
X2425000Y1440000D02*
D03*
X2725000D02*
D03*
X1680000Y1430000D02*
D03*
X1980000D02*
D03*
X1175000Y1435000D02*
D03*
X1475000D02*
D03*
X1620000Y440000D02*
D03*
Y140000D02*
D03*
D21*
X1661653Y1229370D02*
D03*
X3658347Y205630D02*
D03*
X458346Y1070630D02*
D03*
D22*
X720000Y545000D02*
D03*
Y245000D02*
D03*
X985000D02*
D03*
Y545000D02*
D03*
X1635000Y650000D02*
D03*
Y950000D02*
D03*
X3130000Y415000D02*
D03*
X2830000D02*
D03*
D23*
X2715000Y1275000D02*
D03*
D24*
X499213Y823346D02*
D03*
Y723346D02*
D03*
Y623346D02*
D03*
Y523346D02*
D03*
Y423346D02*
D03*
Y323346D02*
D03*
Y223346D02*
D03*
D25*
Y123347D02*
D03*
D26*
X235000Y720000D02*
D03*
X1785000Y230000D02*
D03*
D27*
X235000Y620000D02*
D03*
Y520000D02*
D03*
Y420000D02*
D03*
Y320000D02*
D03*
X1785000Y330000D02*
D03*
D28*
X335000Y1720000D02*
D03*
D29*
Y1460158D02*
D03*
D30*
X138150Y1599921D02*
D03*
D31*
X335000Y1869606D02*
D03*
%TF.MD5,4af795852b267693416e77e22c54b498*%
M02*
