%TF.GenerationSoftware,Altium Limited,Altium Designer,20.1.12 (249)*%
G04 Layer_Color=0*
%FSLAX26Y26*%
%MOIN*%
%TF.SameCoordinates,01E7709E-0BC1-400C-968F-F7AE8F8D3573*%
%TF.FilePolarity,Positive*%
%TF.FileFunction,Plated,1,4,PTH,Drill*%
%TF.Part,Single*%
G01*
G75*
%TA.AperFunction,ComponentDrill*%
%ADD81C,0.039370*%
%ADD82C,0.039370*%
%ADD83C,0.040157*%
%ADD84C,0.033858*%
%ADD85C,0.033465*%
%ADD86C,0.033858*%
%ADD87C,0.027559*%
%ADD88C,0.033465*%
%ADD89C,0.040157*%
%ADD90C,0.035039*%
%ADD91C,0.027559*%
%ADD92C,0.035433*%
%ADD93R,0.125984X0.039370*%
%ADD94R,0.039370X0.125984*%
%ADD95C,0.090551*%
D81*
X3415000Y1210276D02*
D03*
Y1111850D02*
D03*
Y915000D02*
D03*
Y1013425D02*
D03*
X3565000Y1390000D02*
D03*
X3465000D02*
D03*
X3365000D02*
D03*
X2960000Y1653347D02*
D03*
X3058425D02*
D03*
X2590787Y1650000D02*
D03*
X2689213D02*
D03*
X1645000Y1640000D02*
D03*
X1743425D02*
D03*
X1280000D02*
D03*
X1378425D02*
D03*
D82*
X3415000Y1693425D02*
D03*
Y1595000D02*
D03*
X696732Y1639134D02*
D03*
X795158D02*
D03*
X992008D02*
D03*
X893583D02*
D03*
X3415000Y659213D02*
D03*
Y560787D02*
D03*
X2200000Y1645000D02*
D03*
X2298425D02*
D03*
X2101575D02*
D03*
X2003150D02*
D03*
X245000Y1200000D02*
D03*
Y1100000D02*
D03*
Y1000000D02*
D03*
D83*
X710000Y1260000D02*
D03*
X810000D02*
D03*
X910000D02*
D03*
X1010000D02*
D03*
X1110000D02*
D03*
X1210000D02*
D03*
X1310000D02*
D03*
X1410000D02*
D03*
Y760000D02*
D03*
X1310000D02*
D03*
X1210000D02*
D03*
X1110000D02*
D03*
X1010000D02*
D03*
X910000D02*
D03*
X810000D02*
D03*
X710000D02*
D03*
X1840000Y1265000D02*
D03*
X1940000D02*
D03*
X2040000D02*
D03*
X2140000D02*
D03*
X2240000D02*
D03*
X2340000D02*
D03*
X2440000D02*
D03*
X2540000D02*
D03*
Y765000D02*
D03*
X2440000D02*
D03*
X2340000D02*
D03*
X2240000D02*
D03*
X2140000D02*
D03*
X2040000D02*
D03*
X1940000D02*
D03*
X1840000D02*
D03*
D84*
X2010000Y470000D02*
D03*
X2088740D02*
D03*
X2395630Y473346D02*
D03*
X2474370D02*
D03*
X1306260Y505000D02*
D03*
X1385000D02*
D03*
D85*
X3245000Y1685000D02*
D03*
Y1985000D02*
D03*
X3355000Y90000D02*
D03*
Y390000D02*
D03*
X1620000Y440000D02*
D03*
Y140000D02*
D03*
D86*
X1661653Y1229370D02*
D03*
Y1150630D02*
D03*
X3658347Y205630D02*
D03*
Y284370D02*
D03*
X458346Y1070630D02*
D03*
Y1149370D02*
D03*
D87*
X720000Y545000D02*
D03*
Y245000D02*
D03*
X985000D02*
D03*
Y545000D02*
D03*
X1635000Y650000D02*
D03*
Y950000D02*
D03*
D88*
X2870000Y1435000D02*
D03*
X3170000D02*
D03*
X2425000Y1440000D02*
D03*
X2725000D02*
D03*
X1680000Y1430000D02*
D03*
X1980000D02*
D03*
X1175000Y1435000D02*
D03*
X1475000D02*
D03*
D89*
X3215000Y1275000D02*
D03*
Y1175000D02*
D03*
Y1075000D02*
D03*
Y975000D02*
D03*
Y875000D02*
D03*
Y775000D02*
D03*
Y675000D02*
D03*
Y575000D02*
D03*
X2715000D02*
D03*
Y675000D02*
D03*
Y775000D02*
D03*
Y875000D02*
D03*
Y975000D02*
D03*
Y1075000D02*
D03*
Y1175000D02*
D03*
Y1275000D02*
D03*
D90*
X499213Y823346D02*
D03*
Y723346D02*
D03*
Y623346D02*
D03*
Y523346D02*
D03*
Y423346D02*
D03*
Y323346D02*
D03*
Y223346D02*
D03*
Y123347D02*
D03*
D91*
X3130000Y415000D02*
D03*
X2830000D02*
D03*
D92*
X235000Y720000D02*
D03*
Y620000D02*
D03*
Y520000D02*
D03*
Y420000D02*
D03*
Y320000D02*
D03*
X1785000Y230000D02*
D03*
Y330000D02*
D03*
D93*
X335000Y1720000D02*
D03*
Y1460158D02*
D03*
D94*
X138150Y1599921D02*
D03*
D95*
X335000Y1869606D02*
D03*
%TF.MD5,0e2d26b845c5202657eb374eb389f571*%
M02*
