%TF.GenerationSoftware,Altium Limited,Altium Designer,20.1.12 (249)*%
G04 Layer_Color=65535*
%FSLAX26Y26*%
%MOIN*%
%TF.SameCoordinates,3330814B-4F48-45CB-92AE-830D8B31506C*%
%TF.FilePolarity,Positive*%
%TF.FileFunction,Legend,Top*%
%TF.Part,Single*%
G01*
G75*
%TA.AperFunction,NonConductor*%
%ADD68C,0.007874*%
%ADD69C,0.005000*%
%ADD70C,0.000000*%
%ADD71C,0.015748*%
%ADD72C,0.006000*%
%ADD73C,0.010000*%
D68*
X783937Y712835D02*
G03*
X783937Y712835I-3937J0D01*
G01*
X1693937Y1452165D02*
G03*
X1693937Y1452165I-3937J0D01*
G01*
X808937Y164567D02*
G03*
X808937Y164567I-3937J0D01*
G01*
X1667205Y779685D02*
G03*
X1667205Y779685I-3937J0D01*
G01*
X753228Y1552047D02*
G03*
X753228Y1552047I-3937J0D01*
G01*
X595000Y985000D02*
X625000D01*
X595000Y785000D02*
Y985000D01*
Y785000D02*
X655000D01*
Y985000D01*
X625000D02*
X655000D01*
X625000Y776000D02*
Y785000D01*
Y985000D02*
Y994000D01*
X1455000Y575000D02*
Y605000D01*
X1255000D02*
X1455000D01*
X1255000Y545000D02*
Y605000D01*
Y545000D02*
X1455000D01*
Y575000D01*
X1246000D02*
X1255000D01*
X1455000D02*
X1464000D01*
X1865000Y585000D02*
Y615000D01*
X1665000D02*
X1865000D01*
X1665000Y555000D02*
Y615000D01*
Y555000D02*
X1865000D01*
Y585000D01*
X1656000D02*
X1665000D01*
X1865000D02*
X1874000D01*
X330000Y30000D02*
Y130000D01*
X830000D01*
X330000Y30000D02*
X830000D01*
Y130000D01*
X545000Y1125000D02*
X695000D01*
X545000D02*
Y1575000D01*
X695000D01*
Y1125000D02*
Y1575000D01*
X45000Y370000D02*
Y520000D01*
X495000D01*
Y370000D02*
Y520000D01*
X45000Y370000D02*
X495000D01*
D69*
X1564213Y942638D02*
G03*
X1564213Y942638I-5000J0D01*
G01*
X730000Y590787D02*
X1030000D01*
Y689213D01*
X730000D02*
X1030000D01*
X730000Y590787D02*
Y689213D01*
X1740000Y1475787D02*
Y1574213D01*
X1440000Y1475787D02*
X1740000D01*
X1440000D02*
Y1574213D01*
X1740000D01*
X847126Y203937D02*
Y296063D01*
X62874Y203937D02*
X847126D01*
X62874D02*
Y296063D01*
X847126D01*
X1921142Y671417D02*
Y848583D01*
X1688858D02*
X1921142D01*
X1688858Y671417D02*
Y848583D01*
Y671417D02*
X1921142D01*
X47795Y579331D02*
Y870669D01*
X500551D01*
Y579331D02*
Y870669D01*
X47795Y579331D02*
X500551D01*
X100000Y1575000D02*
X472165D01*
Y1020000D02*
Y1575000D01*
X100000Y1020000D02*
Y1050000D01*
X405000Y1020000D02*
X472165D01*
X100000Y1270000D02*
Y1575000D01*
Y1020000D02*
X185000D01*
X885118Y37795D02*
X1176457D01*
X885118D02*
Y490551D01*
X1176457D01*
Y37795D02*
Y490551D01*
X1264331Y37795D02*
X1555669D01*
X1264331D02*
Y490551D01*
X1555669D01*
Y37795D02*
Y490551D01*
X1634290Y36967D02*
X1925629D01*
X1634290D02*
Y489723D01*
X1925629D01*
Y36967D02*
Y489723D01*
X780000Y780000D02*
Y1580000D01*
Y780000D02*
X1380000D01*
Y1580000D01*
X780000D02*
X1380000D01*
D70*
X400315Y547835D02*
G03*
X400315Y547835I-10000J0D01*
G01*
X1217953Y380315D02*
G03*
X1217953Y380315I-10000J0D01*
G01*
X1597165D02*
G03*
X1597165Y380315I-10000J0D01*
G01*
X1967125Y379487D02*
G03*
X1967125Y379487I-10000J0D01*
G01*
D71*
X302874Y941260D02*
G03*
X302874Y941260I-7874J0D01*
G01*
D72*
X1922205Y896575D02*
Y1388701D01*
X1461575Y896575D02*
X1922205D01*
X1461575Y1388701D02*
X1922205D01*
D73*
X1110003Y729990D02*
X1090010D01*
X1100006D01*
Y680006D01*
X1090010Y670010D01*
X1080013D01*
X1070016Y680006D01*
X1159987Y670010D02*
Y729990D01*
X1129997Y700000D01*
X1169984D01*
X1110000Y915000D02*
X1065014D01*
X1080010Y929995D01*
X1065014Y944990D01*
X1110000D01*
X1080010Y967483D02*
Y982478D01*
X1087507Y989976D01*
X1110000D01*
Y967483D01*
X1102502Y959986D01*
X1095005Y967483D01*
Y989976D01*
X1065014Y1034961D02*
X1110000D01*
Y1012469D01*
X1102502Y1004971D01*
X1087507D01*
X1080010Y1012469D01*
Y1034961D01*
X1110000Y1049957D02*
Y1064952D01*
Y1057454D01*
X1080010D01*
Y1049957D01*
X1110000Y1087444D02*
Y1109937D01*
X1102502Y1117435D01*
X1095005Y1109937D01*
Y1094942D01*
X1087507Y1087444D01*
X1080010Y1094942D01*
Y1117435D01*
X1110000Y1139928D02*
Y1154923D01*
X1102502Y1162420D01*
X1087507D01*
X1080010Y1154923D01*
Y1139928D01*
X1087507Y1132430D01*
X1102502D01*
X1110000Y1139928D01*
Y1177415D02*
X1080010D01*
Y1199908D01*
X1087507Y1207406D01*
X1110000D01*
X1065014Y1267386D02*
X1110000D01*
Y1289879D01*
X1102502Y1297377D01*
X1095005D01*
X1087507Y1289879D01*
Y1267386D01*
Y1289879D01*
X1080010Y1297377D01*
X1072512D01*
X1065014Y1289879D01*
Y1267386D01*
X1110000Y1334865D02*
Y1319870D01*
X1102502Y1312372D01*
X1087507D01*
X1080010Y1319870D01*
Y1334865D01*
X1087507Y1342362D01*
X1095005D01*
Y1312372D01*
X1080010Y1364855D02*
Y1379850D01*
X1087507Y1387348D01*
X1110000D01*
Y1364855D01*
X1102502Y1357357D01*
X1095005Y1364855D01*
Y1387348D01*
X1080010Y1402343D02*
X1110000D01*
X1095005D01*
X1087507Y1409841D01*
X1080010Y1417338D01*
Y1424836D01*
X1110000Y1469821D02*
Y1454826D01*
X1102502Y1447328D01*
X1087507D01*
X1080010Y1454826D01*
Y1469821D01*
X1087507Y1477319D01*
X1095005D01*
Y1447328D01*
X976686Y871663D02*
X988348D01*
Y860000D01*
Y883326D01*
Y871663D01*
X1023337D01*
X1035000Y883326D01*
X965023Y918314D02*
X1035000D01*
X1000011D01*
X988348Y929977D01*
Y953303D01*
X1000011Y964966D01*
X1035000D01*
Y1023281D02*
Y999955D01*
X1023337Y988292D01*
X1000011D01*
X988348Y999955D01*
Y1023281D01*
X1000011Y1034944D01*
X1011674D01*
Y988292D01*
X1035000Y1058269D02*
X965023D01*
X988348Y1081595D01*
X965023Y1104921D01*
X1035000D01*
Y1139910D02*
Y1163235D01*
X1023337Y1174898D01*
X1000011D01*
X988348Y1163235D01*
Y1139910D01*
X1000011Y1128247D01*
X1023337D01*
X1035000Y1139910D01*
Y1198224D02*
X988348D01*
Y1233213D01*
X1000011Y1244876D01*
X1035000D01*
X988348Y1279864D02*
Y1303190D01*
X1000011Y1314853D01*
X1035000D01*
Y1279864D01*
X1023337Y1268201D01*
X1011674Y1279864D01*
Y1314853D01*
X988348Y1338179D02*
X1035000D01*
X1011674D01*
X1000011Y1349842D01*
X988348Y1361505D01*
Y1373168D01*
Y1454808D02*
Y1419819D01*
X1000011Y1408156D01*
X1023337D01*
X1035000Y1419819D01*
Y1454808D01*
X965023Y1478134D02*
X1035000D01*
X1000011D01*
X988348Y1489797D01*
Y1513122D01*
X1000011Y1524785D01*
X1035000D01*
X1795013Y943435D02*
Y1003415D01*
X1825003D01*
X1835000Y993419D01*
Y973425D01*
X1825003Y963428D01*
X1795013D01*
X1854994Y943435D02*
X1874987D01*
X1864990D01*
Y1003415D01*
X1854994Y993419D01*
X1670763Y74181D02*
Y134162D01*
X1700753D01*
X1710750Y124165D01*
Y104172D01*
X1700753Y94175D01*
X1670763D01*
X1730743Y134162D02*
X1770730D01*
Y124165D01*
X1730743Y84178D01*
Y74181D01*
X1295016Y70010D02*
Y129990D01*
X1325006D01*
X1335003Y119993D01*
Y100000D01*
X1325006Y90003D01*
X1295016D01*
X1394984Y129990D02*
X1374990Y119993D01*
X1354997Y100000D01*
Y80007D01*
X1364994Y70010D01*
X1384987D01*
X1394984Y80007D01*
Y90003D01*
X1384987Y100000D01*
X1354997D01*
X910016Y65010D02*
Y124990D01*
X940006D01*
X950003Y114993D01*
Y95000D01*
X940006Y85003D01*
X910016D01*
X999987Y65010D02*
Y124990D01*
X969997Y95000D01*
X1009984D01*
X95016Y760010D02*
Y819990D01*
X125007D01*
X135003Y809994D01*
Y790000D01*
X125007Y780003D01*
X95016D01*
X154997Y809994D02*
X164994Y819990D01*
X184987D01*
X194984Y809994D01*
Y799997D01*
X184987Y790000D01*
X174990D01*
X184987D01*
X194984Y780003D01*
Y770006D01*
X184987Y760010D01*
X164994D01*
X154997Y770006D01*
X605003Y389990D02*
X585010D01*
X595006D01*
Y340007D01*
X585010Y330010D01*
X575013D01*
X565016Y340007D01*
X664984Y330010D02*
X624997D01*
X664984Y369997D01*
Y379993D01*
X654987Y389990D01*
X634994D01*
X624997Y379993D01*
X1135021Y894990D02*
X1155015D01*
X1145018D01*
Y835010D01*
X1135021D01*
X1155015D01*
X1224992Y884994D02*
X1214995Y894990D01*
X1195002D01*
X1185005Y884994D01*
Y845006D01*
X1195002Y835010D01*
X1214995D01*
X1224992Y845006D01*
X1244986Y835010D02*
X1264979D01*
X1254982D01*
Y894990D01*
X1244986Y884994D01*
X1555016Y665010D02*
Y724990D01*
X1585006D01*
X1595003Y714994D01*
Y695000D01*
X1585006Y685003D01*
X1555016D01*
X1575010D02*
X1595003Y665010D01*
X1614997Y714994D02*
X1624994Y724990D01*
X1644987D01*
X1654984Y714994D01*
Y704997D01*
X1644987Y695000D01*
X1634990D01*
X1644987D01*
X1654984Y685003D01*
Y675006D01*
X1644987Y665010D01*
X1624994D01*
X1614997Y675006D01*
X1380016Y645010D02*
Y704990D01*
X1410006D01*
X1420003Y694994D01*
Y675000D01*
X1410006Y665003D01*
X1380016D01*
X1400010D02*
X1420003Y645010D01*
X1479984D02*
X1439997D01*
X1479984Y684997D01*
Y694994D01*
X1469987Y704990D01*
X1449994D01*
X1439997Y694994D01*
X595013Y615010D02*
Y674990D01*
X625003D01*
X635000Y664994D01*
Y645000D01*
X625003Y635003D01*
X595013D01*
X615006D02*
X635000Y615010D01*
X654994D02*
X674987D01*
X664990D01*
Y674990D01*
X654994Y664994D01*
X1510016Y795010D02*
Y854990D01*
X1540006D01*
X1550003Y844994D01*
Y825000D01*
X1540006Y815003D01*
X1510016D01*
X1609984Y854990D02*
X1569997D01*
Y825000D01*
X1589990Y834997D01*
X1599987D01*
X1609984Y825000D01*
Y805006D01*
X1599987Y795010D01*
X1579994D01*
X1569997Y805006D01*
X205016Y65010D02*
Y124990D01*
X235006D01*
X245003Y114993D01*
Y95000D01*
X235006Y85003D01*
X205016D01*
X304984Y65010D02*
X264997D01*
X304984Y104997D01*
Y114993D01*
X294987Y124990D01*
X274994D01*
X264997Y114993D01*
X1655003Y1364990D02*
X1635010D01*
X1645006D01*
Y1315006D01*
X1635010Y1305010D01*
X1625013D01*
X1615016Y1315006D01*
X1674997Y1354994D02*
X1684994Y1364990D01*
X1704987D01*
X1714984Y1354994D01*
Y1344997D01*
X1704987Y1335000D01*
X1694990D01*
X1704987D01*
X1714984Y1325003D01*
Y1315006D01*
X1704987Y1305010D01*
X1684994D01*
X1674997Y1315006D01*
X165000Y1544833D02*
X145006D01*
X155003D01*
Y1494849D01*
X145006Y1484852D01*
X135010D01*
X125013Y1494849D01*
X184994Y1484852D02*
X204987D01*
X194990D01*
Y1544833D01*
X184994Y1534836D01*
X280003Y464993D02*
X270007Y474990D01*
X250013D01*
X240016Y464993D01*
Y425007D01*
X250013Y415010D01*
X270007D01*
X280003Y425007D01*
X339984Y415010D02*
X299997D01*
X339984Y454997D01*
Y464993D01*
X329987Y474990D01*
X309994D01*
X299997Y464993D01*
X625000Y1364994D02*
X615003Y1374990D01*
X595010D01*
X585013Y1364994D01*
Y1325006D01*
X595010Y1315010D01*
X615003D01*
X625000Y1325006D01*
X644994Y1315010D02*
X664987D01*
X654990D01*
Y1374990D01*
X644994Y1364994D01*
%TF.MD5,04cfb05841dae5780bceabf8b191524c*%
M02*
