%TF.GenerationSoftware,Altium Limited,Altium Designer,20.1.12 (249)*%
G04 Layer_Physical_Order=1*
G04 Layer_Color=255*
%FSLAX26Y26*%
%MOIN*%
%TF.SameCoordinates,3330814B-4F48-45CB-92AE-830D8B31506C*%
%TF.FilePolarity,Positive*%
%TF.FileFunction,Copper,L1,Top,Signal*%
%TF.Part,Single*%
G01*
G75*
%TA.AperFunction,Conductor*%
%ADD10C,0.010000*%
%ADD11C,0.020000*%
%TA.AperFunction,ComponentPad*%
%ADD12C,0.059370*%
%ADD13R,0.059370X0.059370*%
%TA.AperFunction,WasherPad*%
%ADD14C,0.125984*%
%TA.AperFunction,ComponentPad*%
%ADD15C,0.055118*%
%ADD16R,0.055039X0.055039*%
%ADD17C,0.055039*%
%ADD18C,0.053858*%
%ADD19R,0.053858X0.053858*%
%ADD20C,0.059055*%
%ADD21R,0.059055X0.059055*%
%ADD22R,0.059370X0.059370*%
%ADD23O,0.196850X0.098425*%
%ADD24O,0.196850X0.098425*%
%ADD25O,0.098425X0.196850*%
%ADD26C,0.157480*%
%ADD27C,0.047244*%
%ADD28C,0.060236*%
%ADD29R,0.060236X0.060236*%
D10*
X410000Y774213D02*
Y774213D01*
X565787Y930000D02*
X830000D01*
X410000Y774213D02*
X565787Y930000D01*
X410000Y675787D02*
X564448Y830235D01*
X829765D01*
X830000Y830000D01*
X1330000Y1530000D02*
X1332500Y1527500D01*
X1487500D02*
X1490000Y1525000D01*
X1330000Y1030000D02*
X1525000D01*
X1560000Y995000D01*
X1330000Y1130000D02*
X1523425D01*
X1560000Y1093425D02*
Y1093425D01*
X1523425Y1130000D02*
X1560000Y1093425D01*
X1330000Y1230000D02*
X1521851D01*
X1560000Y1191850D02*
Y1191851D01*
X1521851Y1230000D02*
X1560000Y1191851D01*
X1330000Y1330000D02*
X1520276D01*
X1560000Y1290276D01*
X338511Y80000D02*
X380000D01*
X205173Y213338D02*
X338511Y80000D01*
X205173Y213338D02*
Y249827D01*
X205000Y250000D02*
X205173Y249827D01*
X310000Y250000D02*
X480000Y80000D01*
X305000Y250000D02*
X310000D01*
X605000D02*
X610000D01*
X780000Y80000D01*
X720000Y640000D02*
X780000D01*
X625000Y735000D02*
X720000Y640000D01*
X1615000Y585000D02*
X1726575Y473425D01*
Y395000D02*
Y473425D01*
X1560000Y640000D02*
X1615000Y585000D01*
X980000Y640000D02*
X1560000D01*
X981575Y400000D02*
X981575D01*
X780402Y601173D02*
X981575Y400000D01*
X780402Y601173D02*
Y639598D01*
X780000Y640000D02*
X780402Y639598D01*
X1205000Y565394D02*
Y575000D01*
Y565394D02*
X1360787Y409606D01*
Y400000D02*
Y409606D01*
X880000Y640000D02*
X945000Y575000D01*
X1205000D01*
X830000Y1030000D02*
Y1130000D01*
X405000Y245000D02*
X570000Y80000D01*
X405000Y245000D02*
Y250000D01*
X570000Y80000D02*
X580000D01*
X505000Y250000D02*
X510000D01*
X680000Y80000D01*
Y80000D02*
Y80000D01*
D11*
X1332500Y1527500D02*
X1487500D01*
X631716Y1580118D02*
X1279882D01*
X1330000Y1530000D01*
X620000Y1437884D02*
Y1500000D01*
Y1568402D01*
X631716Y1580118D01*
X295000Y1112884D02*
X620000Y1437884D01*
X295000Y1020000D02*
Y1112884D01*
D12*
X980000Y640000D02*
D03*
X880000D02*
D03*
X1590000Y1525000D02*
D03*
X1490000D02*
D03*
X1560000Y1093425D02*
D03*
Y995000D02*
D03*
Y1191850D02*
D03*
Y1290276D02*
D03*
X410000Y774213D02*
D03*
X981575Y400000D02*
D03*
X1360787D02*
D03*
X1730747Y399172D02*
D03*
D13*
X780000Y640000D02*
D03*
X1690000Y1525000D02*
D03*
X1080000Y400000D02*
D03*
X1459213D02*
D03*
X1829172Y399172D02*
D03*
D14*
X105000Y105000D02*
D03*
X1880000Y1510000D02*
D03*
D15*
X625000Y1035000D02*
D03*
Y735000D02*
D03*
X1505000Y575000D02*
D03*
X1205000D02*
D03*
X1915000Y585000D02*
D03*
X1615000D02*
D03*
D16*
X805000Y250000D02*
D03*
D17*
X705000D02*
D03*
X605000D02*
D03*
X505000D02*
D03*
X405000D02*
D03*
X305000D02*
D03*
X205000D02*
D03*
X105000D02*
D03*
D18*
X1844370Y781654D02*
D03*
D19*
X1765630D02*
D03*
D20*
X780000Y80000D02*
D03*
X680000D02*
D03*
X580000D02*
D03*
X480000D02*
D03*
D21*
X380000D02*
D03*
D22*
X410000Y675787D02*
D03*
D23*
X295000Y1279842D02*
D03*
D24*
Y1020000D02*
D03*
D25*
X98150Y1159764D02*
D03*
D26*
X295000Y1429449D02*
D03*
D27*
X620000Y1200000D02*
D03*
Y1500000D02*
D03*
X120000Y445000D02*
D03*
X420000D02*
D03*
D28*
X1330000Y1530000D02*
D03*
Y1430000D02*
D03*
Y1330000D02*
D03*
Y1230000D02*
D03*
Y1130000D02*
D03*
Y1030000D02*
D03*
Y930000D02*
D03*
Y830000D02*
D03*
X830000D02*
D03*
Y930000D02*
D03*
Y1030000D02*
D03*
Y1130000D02*
D03*
Y1230000D02*
D03*
Y1330000D02*
D03*
Y1430000D02*
D03*
D29*
Y1530000D02*
D03*
%TF.MD5,f01da8d757351113295ee57fc313f32b*%
M02*
