%TF.GenerationSoftware,Altium Limited,Altium Designer,20.1.12 (249)*%
G04 Layer_Physical_Order=2*
G04 Layer_Color=32768*
%FSLAX26Y26*%
%MOIN*%
%TF.SameCoordinates,3330814B-4F48-45CB-92AE-830D8B31506C*%
%TF.FilePolarity,Negative*%
%TF.FileFunction,Copper,L2,Inr,Plane*%
%TF.Part,Single*%
G01*
G75*
%TA.AperFunction,NonConductor*%
%ADD30C,0.040000*%
%TA.AperFunction,ComponentPad*%
%ADD31C,0.079370*%
%TA.AperFunction,WasherPad*%
%ADD32C,0.165984*%
%TA.AperFunction,ComponentPad*%
G04:AMPARAMS|DCode=33|XSize=99.37mil|YSize=99.37mil|CornerRadius=0mil|HoleSize=0mil|Usage=FLASHONLY|Rotation=0.000|XOffset=0mil|YOffset=0mil|HoleType=Round|Shape=Relief|Width=10mil|Gap=10mil|Entries=4|*
%AMTHD33*
7,0,0,0.099370,0.079370,0.010000,45*
%
%ADD33THD33*%
G04:AMPARAMS|DCode=34|XSize=93.465mil|YSize=93.465mil|CornerRadius=0mil|HoleSize=0mil|Usage=FLASHONLY|Rotation=0.000|XOffset=0mil|YOffset=0mil|HoleType=Round|Shape=Relief|Width=10mil|Gap=10mil|Entries=4|*
%AMTHD34*
7,0,0,0.093465,0.073465,0.010000,45*
%
%ADD34THD34*%
%ADD35C,0.073465*%
G04:AMPARAMS|DCode=36|XSize=95.039mil|YSize=95.039mil|CornerRadius=0mil|HoleSize=0mil|Usage=FLASHONLY|Rotation=0.000|XOffset=0mil|YOffset=0mil|HoleType=Round|Shape=Relief|Width=10mil|Gap=10mil|Entries=4|*
%AMTHD36*
7,0,0,0.095039,0.075039,0.010000,45*
%
%ADD36THD36*%
%ADD37C,0.075039*%
%ADD38C,0.073858*%
G04:AMPARAMS|DCode=39|XSize=93.858mil|YSize=93.858mil|CornerRadius=0mil|HoleSize=0mil|Usage=FLASHONLY|Rotation=0.000|XOffset=0mil|YOffset=0mil|HoleType=Round|Shape=Relief|Width=10mil|Gap=10mil|Entries=4|*
%AMTHD39*
7,0,0,0.093858,0.073858,0.010000,45*
%
%ADD39THD39*%
%ADD40C,0.075433*%
%AMTHRECTD41*
4,1,4,0.092992,0.049685,0.092992,-0.049685,-0.092992,-0.049685,-0.092992,0.049685,0.092992,0.049685,0.0*
4,0,4,0.082992,0.039685,0.082992,-0.039685,-0.082992,-0.039685,-0.082992,0.039685,0.082992,0.039685,0.0*
20,0,0.010000,0.043307,0.000000,0.142677,0.099370,0*
20,0,0.010000,-0.043307,0.000000,-0.142677,-0.099370,0*
20,0,0.010000,0.043307,0.000000,0.142677,-0.099370,0*
20,0,0.010000,-0.043307,0.000000,-0.142677,0.099370,0*
%
%ADD41THRECTD41*%

%ADD42R,0.165984X0.079370*%
%AMTHRECTD43*
4,1,4,-0.049685,0.092992,0.049685,0.092992,0.049685,-0.092992,-0.049685,-0.092992,-0.049685,0.092992,0.0*
4,0,4,-0.039685,0.082992,0.039685,0.082992,0.039685,-0.082992,-0.039685,-0.082992,-0.039685,0.082992,0.0*
20,0,0.010000,0.000000,0.043307,-0.099370,0.142677,0*
20,0,0.010000,0.000000,-0.043307,0.099370,-0.142677,0*
20,0,0.010000,0.000000,0.043307,0.099370,0.142677,0*
20,0,0.010000,0.000000,-0.043307,-0.099370,-0.142677,0*
%
%ADD43THRECTD43*%

%ADD44C,0.130551*%
G04:AMPARAMS|DCode=45|XSize=87.559mil|YSize=87.559mil|CornerRadius=0mil|HoleSize=0mil|Usage=FLASHONLY|Rotation=0.000|XOffset=0mil|YOffset=0mil|HoleType=Round|Shape=Relief|Width=10mil|Gap=10mil|Entries=4|*
%AMTHD45*
7,0,0,0.087559,0.067559,0.010000,45*
%
%ADD45THD45*%
%ADD46C,0.067559*%
%ADD47C,0.080157*%
G04:AMPARAMS|DCode=48|XSize=100.157mil|YSize=100.157mil|CornerRadius=0mil|HoleSize=0mil|Usage=FLASHONLY|Rotation=0.000|XOffset=0mil|YOffset=0mil|HoleType=Round|Shape=Relief|Width=10mil|Gap=10mil|Entries=4|*
%AMTHD48*
7,0,0,0.100157,0.080157,0.010000,45*
%
%ADD48THD48*%
D30*
X0Y0D02*
X1985000D01*
Y1610000D01*
X0D02*
X1985000D01*
X0Y0D02*
Y1610000D01*
D31*
X980000Y640000D02*
D03*
X880000D02*
D03*
X780000D02*
D03*
X1590000Y1525000D02*
D03*
X1490000D02*
D03*
X1560000Y1093425D02*
D03*
Y995000D02*
D03*
Y1191850D02*
D03*
Y1290276D02*
D03*
X410000Y675787D02*
D03*
Y774213D02*
D03*
X1080000Y400000D02*
D03*
X981575D02*
D03*
X1459213D02*
D03*
X1360787D02*
D03*
X1829172Y399172D02*
D03*
X1730747D02*
D03*
D32*
X105000Y105000D02*
D03*
X1880000Y1510000D02*
D03*
D33*
X1690000Y1525000D02*
D03*
D34*
X625000Y1035000D02*
D03*
X1505000Y575000D02*
D03*
X1915000Y585000D02*
D03*
D35*
X625000Y735000D02*
D03*
X1205000Y575000D02*
D03*
X1615000Y585000D02*
D03*
D36*
X805000Y250000D02*
D03*
D37*
X705000D02*
D03*
X605000D02*
D03*
X505000D02*
D03*
X405000D02*
D03*
X305000D02*
D03*
X205000D02*
D03*
X105000D02*
D03*
D38*
X1844370Y781654D02*
D03*
D39*
X1765630D02*
D03*
D40*
X780000Y80000D02*
D03*
X680000D02*
D03*
X580000D02*
D03*
X480000D02*
D03*
X380000D02*
D03*
D41*
X295000Y1279842D02*
D03*
D42*
Y1020000D02*
D03*
D43*
X98150Y1159764D02*
D03*
D44*
X295000Y1429449D02*
D03*
D45*
X620000Y1200000D02*
D03*
X420000Y445000D02*
D03*
D46*
X620000Y1500000D02*
D03*
X120000Y445000D02*
D03*
D47*
X1330000Y1530000D02*
D03*
Y1330000D02*
D03*
Y1230000D02*
D03*
Y1130000D02*
D03*
Y1030000D02*
D03*
Y930000D02*
D03*
X830000Y830000D02*
D03*
Y930000D02*
D03*
Y1030000D02*
D03*
Y1130000D02*
D03*
Y1230000D02*
D03*
Y1330000D02*
D03*
Y1430000D02*
D03*
Y1530000D02*
D03*
D48*
X1330000Y1430000D02*
D03*
Y830000D02*
D03*
%TF.MD5,ed897c3c3f468c70dc766e4e4c0f80dd*%
M02*
